<svg width="120" height="120" viewBox="0 0 120 120" fill="none" xmlns="http://www.w3.org/2000/svg">
<g clip-path="url(#clip0_101_32)">
<path d="M37.7625 84.9914C35.7258 82.9547 36.7875 83.5289 31.875 82.2141C29.6461 81.6164 27.6867 80.468 25.9148 79.0922L15.2812 105.164C14.2523 107.688 16.1742 110.43 18.8976 110.327L31.2468 109.856L39.7406 118.828C41.6156 120.806 44.9062 120.19 45.9351 117.666L58.1343 87.7547C55.5937 89.1703 52.7742 90 49.8586 90C45.2883 90 40.9945 88.2211 37.7625 84.9914ZM104.719 105.164L94.0851 79.0922C92.3133 80.4703 90.3539 81.6164 88.125 82.2141C83.1867 83.5359 84.2695 82.9594 82.2375 84.9914C79.0054 88.2211 74.7093 90 70.139 90C67.2234 90 64.4039 89.168 61.8633 87.7547L74.0625 117.666C75.0914 120.19 78.3843 120.806 80.257 118.828L88.7531 109.856L101.102 110.327C103.826 110.43 105.748 107.686 104.719 105.164ZM76.6406 79.6875C80.2218 76.043 80.632 76.357 85.732 74.9672C88.9875 74.0789 91.5328 71.4891 92.4047 68.175C94.1578 61.5187 93.7031 62.3227 98.4867 57.4523C100.87 55.0266 101.801 51.4898 100.929 48.1758C99.1781 41.5242 99.1758 42.4523 100.929 35.7937C101.801 32.4797 100.87 28.943 98.4867 26.5172C93.7031 21.6469 94.1578 22.4484 92.4047 15.7945C91.5328 12.4805 88.9875 9.89062 85.732 9.00234C79.1976 7.21875 79.9851 7.68515 75.1968 2.8125C72.8133 0.386716 69.3375 -0.562502 66.082 0.325779C59.55 2.10703 60.4617 2.10937 53.9179 0.325779C50.6625 -0.562502 47.1867 0.384373 44.8031 2.8125C40.0195 7.68281 40.807 7.21875 34.2703 9.00234C31.0148 9.89062 28.4695 12.4805 27.5976 15.7945C25.8468 22.4484 26.2992 21.6469 21.5156 26.5172C19.132 28.943 18.1992 32.4797 19.0734 35.7937C20.8242 42.4406 20.8265 41.5125 19.0734 48.1734C18.2015 51.4875 19.132 55.0242 21.5156 57.4523C26.2992 62.3227 25.8445 61.5187 27.5976 68.175C28.4695 71.4891 31.0148 74.0789 34.2703 74.9672C39.5156 76.3969 39.907 76.1719 43.3593 79.6875C46.4601 82.8445 51.2906 83.4094 55.0172 81.0516C56.5073 80.1055 58.236 79.6031 60.0011 79.6031C61.7663 79.6031 63.4949 80.1055 64.9851 81.0516C68.7093 83.4094 73.5398 82.8445 76.6406 79.6875ZM37.889 41.2406C37.889 28.8117 47.789 18.7359 60 18.7359C72.2109 18.7359 82.1109 28.8117 82.1109 41.2406C82.1109 53.6695 72.2109 63.7453 60 63.7453C47.789 63.7453 37.889 53.6695 37.889 41.2406Z" fill="#F4EEF5"/>
</g>
<defs>
<clipPath id="clip0_101_32">
<rect width="120" height="120" fill="white"/>
</clipPath>
</defs>
</svg>
