<svg width="501" height="401" viewBox="0 0 501 401" fill="none" xmlns="http://www.w3.org/2000/svg">
<path d="M162.826 275.687C160.955 275.687 159.084 275.962 157.299 276.541C147.154 279.838 136.484 281.953 125.251 281.953C114.018 281.953 103.348 279.838 93.1949 276.541C91.4101 275.962 89.547 275.687 87.676 275.687C39.0948 275.687 -0.257063 315.224 0.00126461 363.892C0.110858 384.459 17.0117 401 37.5762 401H212.926C233.49 401 250.391 384.459 250.501 363.892C250.759 315.224 211.407 275.687 162.826 275.687ZM125.251 250.625C166.756 250.625 200.401 216.963 200.401 175.437C200.401 133.912 166.756 100.25 125.251 100.25C83.7463 100.25 50.1011 133.912 50.1011 175.437C50.1011 216.963 83.7463 250.625 125.251 250.625ZM463.425 0H162.826C142.105 0 125.251 17.4263 125.251 38.839V75.1875C143.584 75.1875 160.556 80.4976 175.351 89.1285V50.125H450.9V275.687H400.8V225.562H300.601V275.687H240.919C255.871 288.759 266.846 306.021 271.989 325.812H463.425C484.146 325.812 501 308.386 501 286.973V38.839C501 17.4263 484.146 0 463.425 0Z" fill="#272234"/>
</svg>
