<svg width="162" height="164" viewBox="0 0 162 164" fill="none" xmlns="http://www.w3.org/2000/svg">
<g clip-path="url(#clip0_30_32)">
<path d="M52.65 106.6C52.0451 106.6 51.4401 106.69 50.863 106.879C47.5825 107.958 44.1324 108.65 40.5 108.65C36.8677 108.65 33.4176 107.958 30.1346 106.879C29.5574 106.69 28.955 106.6 28.35 106.6C12.6411 106.6 -0.0834885 119.535 4.27071e-05 135.459C0.0354802 142.188 5.50045 147.6 12.15 147.6H68.85C75.4996 147.6 80.9646 142.188 81 135.459C81.0836 119.535 68.359 106.6 52.65 106.6ZM40.5 98.4C53.9207 98.4 64.8 87.3864 64.8 73.8C64.8 60.2136 53.9207 49.2 40.5 49.2C27.0794 49.2 16.2 60.2136 16.2 73.8C16.2 87.3864 27.0794 98.4 40.5 98.4ZM149.85 16.4H52.65C45.9498 16.4 40.5 22.1016 40.5 29.1074V41C46.4282 41 51.916 42.7374 56.7 45.5612V32.8H145.8V106.6H129.6V90.2H97.2V106.6H77.9018C82.7365 110.877 86.2853 116.525 87.9483 123H149.85C156.55 123 162 117.298 162 110.293V29.1074C162 22.1016 156.55 16.4 149.85 16.4Z" fill="#F4EEF5"/>
</g>
<defs>
<clipPath id="clip0_30_32">
<rect width="162" height="164" fill="white"/>
</clipPath>
</defs>
</svg>
