<svg width="479" height="479" viewBox="0 0 479 479" fill="#f0eaf1" xmlns="http://www.w3.org/2000/svg">
<path d="M301.92 239.5L395.54 145.88C407.028 134.391 407.028 115.765 395.54 104.267L374.733 83.4601C363.245 71.9716 344.618 71.9716 333.12 83.4601L239.5 177.08L145.88 83.4601C134.391 71.9716 115.765 71.9716 104.267 83.4601L83.4601 104.267C71.9716 115.755 71.9716 134.382 83.4601 145.88L177.08 239.5L83.4601 333.12C71.9716 344.609 71.9716 363.235 83.4601 374.733L104.267 395.54C115.755 407.028 134.391 407.028 145.88 395.54L239.5 301.92L333.12 395.54C344.609 407.028 363.245 407.028 374.733 395.54L395.54 374.733C407.028 363.245 407.028 344.618 395.54 333.12L301.92 239.5Z" fill="#f0eaf1"/>
</svg>
