<svg width="146" height="181" viewBox="0 0 146 181" fill="none" xmlns="http://www.w3.org/2000/svg">
<g clip-path="url(#clip0_3_3110)">
<path d="M139.917 30.1694H22.3056C18.9458 30.1694 16.2222 33.5337 16.2222 37.6839V40.1887H6.08333C2.72356 40.1887 0 43.553 0 47.7031V132.867C0 142.551 6.35505 150.401 14.1944 150.401H133.833C140.553 150.401 146 143.672 146 135.372V37.6839C146 33.5337 143.276 30.1694 139.917 30.1694ZM14.1944 135.372C13.6566 135.372 13.1409 135.108 12.7606 134.638C12.3803 134.168 12.1667 133.531 12.1667 132.867V55.2176H16.2222V132.867C16.2222 133.531 16.0086 134.168 15.6283 134.638C15.248 135.108 14.7322 135.372 14.1944 135.372ZM74.0139 130.362H35.4861C33.8064 130.362 32.4444 128.68 32.4444 126.605V124.1C32.4444 122.025 33.8064 120.343 35.4861 120.343H74.0139C75.6936 120.343 77.0555 122.025 77.0555 124.1V126.605C77.0555 128.68 75.6936 130.362 74.0139 130.362ZM126.736 130.362H88.2083C86.5286 130.362 85.1667 128.68 85.1667 126.605V124.1C85.1667 122.025 86.5286 120.343 88.2083 120.343H126.736C128.416 120.343 129.778 122.025 129.778 124.1V126.605C129.778 128.68 128.416 130.362 126.736 130.362ZM74.0139 100.304H35.4861C33.8064 100.304 32.4444 98.622 32.4444 96.5471V94.0422C32.4444 91.9673 33.8064 90.285 35.4861 90.285H74.0139C75.6936 90.285 77.0555 91.9673 77.0555 94.0422V96.5471C77.0555 98.622 75.6936 100.304 74.0139 100.304ZM126.736 100.304H88.2083C86.5286 100.304 85.1667 98.622 85.1667 96.5471V94.0422C85.1667 91.9673 86.5286 90.285 88.2083 90.285H126.736C128.416 90.285 129.778 91.9673 129.778 94.0422V96.5471C129.778 98.622 128.416 100.304 126.736 100.304ZM126.736 70.2465H35.4861C33.8064 70.2465 32.4444 68.5642 32.4444 66.4893V53.9652C32.4444 51.8902 33.8064 50.2079 35.4861 50.2079H126.736C128.416 50.2079 129.778 51.8902 129.778 53.9652V66.4893C129.778 68.5642 128.416 70.2465 126.736 70.2465Z" fill="#F4EEF5"/>
</g>
<defs>
<clipPath id="clip0_3_3110">
<rect width="146" height="180.347" fill="white" transform="translate(0 0.111588)"/>
</clipPath>
</defs>
</svg>
